<?xml version="1.0" encoding="UTF-8"?>
<svg id="comunas" xmlns="http://www.w3.org/2000/svg" version="1.1" viewBox="0 0 1790.48 1283.72">
  <!-- Generator: Adobe Illustrator 30.3.0, SVG Export Plug-In . SVG Version: 2.1.3 Build 182)  -->
  <defs>
    <style>
      .st0 {
        fill: #eb1d24;
      }
    </style>
  </defs>
  <path id="_Ñiquen" data-name="Ñiquen" class="st0" d="M1098.77,440.76l.21,9.7-14.11-8.61-17.49-8.03-32.78-.55-22.12-22.73-6.99,8.69-.2-4.7-18.64,17.26-4.29-2.73-11.31-3.23-16.61-17.15-16.17-17.25-4.07-14.13-12.77-21.47-16.52-15.37-10.87-6.72-1.71-5.85-6.35-10.46-9.79,2.64-9.94,3.39-9.68-1.94-10.88-6.17-9.89,1.41-8.97-4.35h-16.61l-11.12,7.08-13.46-9.83-24.33-.84-13.18-9.04-6.62-6.15-.78-10.14-3.46-7.6-6.26-4.23c.07-.19.12-.33.14-.4.27-.84,1.67-3.91,1.67-3.91l-1.67-10.32,4.74-1.12s1.39-4.74,1.39-5.58-.55-11.72-.55-11.72l2.23-13.12s13.67-20.09,15.35-24.28c1.67-4.18,5.86-18.14,5.86-19.81s-2.79-8.09-2.79-8.09c0,0,3.35-5.58,3.07-7.26-.28-1.67,5.86-3.07,10.32-3.07s-1.67,5.86-2.51,7.54c-.84,1.67,6.7,7.81,6.7,7.81,0,0,.28,12.28,1.12,12.28h5.58s10.04,7.53,11.44,10.05c1.39,2.51,8.09.28,8.09.28,0,0,.84,8.09,2.23,9.48,1.4,1.4,8.38-2.23,8.38-2.23,0,0-.56,7.26,0,8.65.55,1.4,8.65,2.79,8.93,6.14.28,3.35,3.9,14.23,3.9,14.23,0,0,13.4-.27,13.4.84s-3.35,5.02-5.58,7.54c-2.24,2.51,8.93,25.67,8.93,25.67l8.93-.56-5.03,6.7,15.63,13.12,5.58-8.1,3.63-3.62s3.63,8.37,4.47,8.37,2.23,2.51,3.9,2.51,3.91-5.58,3.91-5.58l4.47,4.46s8.93,0,10.88.56,4.74,5.58,8.93,7.26c4.19,1.67,4.19-1.68,4.19-1.68,0,0,10.6-7.25,11.44-7.25s18.97-4.47,20.09-5.58c1.12-1.12,2.79-6.98,5.58-7.82,2.79-.84,5.86,7.82,5.86,7.82,0,0,1.96,0,5.03-.28,3.07-.28,4.74-4.19,6.14-4.19s5.02,5.58,7.53,6.7c2.51,1.11,6.14.56,10.05,1.67,3.9,1.12,5.3,10.05,6.97,12.28,1.68,2.23,8.38,4.47,8.38,4.47v11.72l23.16,18.7,5.58,13.11,21.49,3.35,2.51,6.14s8.65,6.14,9.21,7.26c.56,1.11,33.21,22.04,41.02,24.55,7.82,2.52,25.12-.55,25.12-.55,0,0,1.3,1.83,2.65,3.7.18,11.66,2.23,12.7,3.6,13.38,1.03.52,3.03,2.12,4.93,3.78l-38.44,33.1Z"/>
  <path id="San_Carlos" class="st0" d="M607.78,328.39l13.37-17.65.43-9.54c1.23-2.59,2.33-6.56,4.36-9.85,2.23-3.62,8.65-18.41,12.83-25.95,4.19-7.53,10.33-22.33,12.84-23.16,2.51-.84,4.74,2.79,7.26,8.37,2.51,5.58,5.86,1.12,7.81.28s6.14-.28,6.14-.28c7.26-.28,4.74,5.3,4.74,5.3h5.59l3.34,5.58,12,1.68s9.49,5.58,10.89,9.21l6.14,11.16c5.74-.54,9.5-3.17,11.89-5.88l4.31,2.92,2.12,4.68.9,11.63,8.81,8.19,15.48,10.67,24.22.83,15.57,11.38,13.44-8.55h12.96l9.45,4.58,9.65-1.37,9.77,5.54,12.64,2.53,11.39-3.89,4.61-1.24,3.14,5.17,2.2,7.54,12.57,7.79,15.29,14.21,11.79,19.83,4.3,14.89,17.36,18.52,17.95,18.53,12.13,3.47,7.99,5.08,11.5-10.65.36,8.15,13.67-17,18.62,19.13,34.2.57,15.61,7.15,17.68,10.77.8-1.31,3.39,3.73-11.57,10.98,12,9.79-3.6,15.49,9.65,8.84-6.83,14.37-.77-6.37-9.86-17.15-14.97-.83-12.52-3.04-12.68,1.12-15.48-3.57-25.97,18.07-32.87-1.51-14.63,16.61-7.26-.16-1.08,1.4c-2.41,3.12-5.36,6.79-6.59,8.13-2.46.23-9.71.01-11.2-.2-.8-.19-2.98-.29-26.75.16-1.11.02-1.83.03-1.95.04h-25.99l-17.92-10.35-.69-.09c-10.56-1.42-11.23-1.42-11.49-1.42-.97,0-2.07,0-8.57,5.56-2.96,2.53-6.94,6.24-9.13,9.53-.38.56-.67.97-.9,1.26-.67-.19-1.53-.3-2.56-.11-1.7.32-13.2.64-15.26.64-2.77,0-4.44,2.49-6.37,5.38-.42.61-1.04,1.54-1.26,1.78-.79.79-2.82,3-5.2,5.59-.23.25-.45.5-.66.72-.95-.35-2.11-.83-2.67-1.06-.28-.11-.53-.22-.74-.3-.39-.42-1.12-1.41-1.76-2.41l-.98-8.42,4.45-5.12v-10.56l1.15-5.23c3.18-2.21,4.67-3.88,4.22-6.16-.27-1.36-.88-2.08-5.9-7.01-.85-.83-1.91-1.86-2.13-2.12-.2-.23-.65-.7-1.26-1.31-1.86-1.88-3.21-3.34-4.05-4.36.26-.13.51-.25.71-.34.8-.37,1.52-.7,2.13-1.14,1.47-.35,6.43-.75,10.83-.75,5.36,0,7.77-4.02,8.09-6.72l.03-.26-.2-5.5-12.71-13.41-2.19.85c-1.16.45-3.24,1.36-4.44,2.49-.84.6-4.35,2.45-6.08,3.22-.58-.31-1.51-.95-2.41-2.03-1.07-1.29-1.75-2.44-2.09-3.09.05-1.09.12-2.15.18-2.71.57-.97,1.72-2.97,3.44-5.99,7.01-2.53,11.08-4.15,12.09-4.83,2.04-1.36,2.62-4.1,1.72-8.14l4.17-11.13-41.11-16.27-26.9-1.48-16.27-17.98-7.8-9.67-1.41-.18c-3-.37-8.18-1-9.22-1-1.18,0-2.39.48-4.26,1.26-.5.21-1.23.52-1.53.61-.47.08-1.2.25-2.54.57-1.17.29-3.41.83-4.46,1-1.16-.5-3.93-1.93-6.19-3.16l-.65-.35-20.48-1.65-14.63-11.57-14.64-1.33-6.59,4.87c-7.66.1-19.38.29-20.47.43-1.62.2-2.77,1.16-7.43,5.56-.42.39-.89.83-1.34,1.25-.37-.43-.75-.91-1.09-1.36l-12.24-14.68,4.76-13.03,5.49-17.48.89-20.78,11.94,6.56Z"/>
  <path id="El_Carmen" class="st0" d="M1174.16,939.54c0,1.02,0,2.18,5.48,9.59l-2.48,30.38-10.88-14.6-29.6,2.5-13.37,12.97-19.41,13.98-2.68,9.97-1.96,1.96c-8.42,1.83-17.49,3.7-20.11,4.1-2.45-1.38-10.57-7.55-17.25-12.93l-1.36-1.09-11.69,2.93h-21.89c-3.77,0-20.84,3.29-24.95,4.1l-24.04.73-20.63-2.14-18.4-10.35-12.68,2.87-24.83,3.19c-4.83-2.43-10.2-5.27-11.27-6.04-.66-.64-2.42-2.04-7.95-1.13-5.44-3.51-6.68-3.51-7.44-3.51-.55,0-1.56,0-13.57,3.74l-10.54-7.13-10.45-3.49-11.48-17.81-9.84,2.46-7.24-4.94-13.8-5.13-13.94-1.78-11.89-9.44-9.7-5.64-9.15-9.15-23.18-1.84-9.95-12.89-16.62-2.65-3.55-3.55,9.66-2.76,15.55-1.98,12.83,12.47h8.08l7.11-3,15.15-.35,13.69,1.14,10.52-2.02,5.88-2.53.3-.2c5.56-3.9,8.68-6.31,10.43-7.93,2.73,1.09,8.19,3.66,12.79,5.96l2.61,1.3,18.97-25.18,21.82-.72,11.18-8.95,15.71-.73,5.66-3.23c1.84-.64,11.03-3.85,14.88-5.6,1.66-.76,7.44.25,11.58,1.62l20.58,5.26,1.22-.69c11.16-6.29,23.75-13.1,26.81-14.36,2.82.61,13.83,3.83,23.66,6.84l2.12.65,12.13-13.31,16.7-1.81,18.07-12.76,9.23,4.23,4.94-4.59,20.06,12.73,4.26,14.32,17.62,5.33,37.47,16.01c3.01,3.18,17.91,18.99,19.3,20.38,1.86,1.86,5.55,2.13,8.83,1.91l6.18,7.02c.29,10.97.7,26.44.71,27.29Z"/>
  <path id="Pemuco" class="st0" d="M1162.99,972.21l12.33,16.55-12.21,13.14h-6.66c-2.91,0-4.42,2.2-7.71,11.23-.87,2.39-1.67,4.76-2.24,6.48l-24.77-1.44-6.12,7.64-30.3,1.85-18.8,19.16c-22.71-6.97-23.7-6.97-24.29-6.97-1.61,0-2.7,0-11.37,10.47l-22.87.67-8.73-4.13-9.7,11.32-11.57.7-9.4,5.06-29.15-3.2-30.39-8.25-20.57.72-22.6-15.7-33.1,14.24-30.1-.35-15.01-11.46-1.99,1.08c-5.05,2.73-11.41,5.73-13.6,6.25-1-.63-2.95-2.38-4.49-4.05l-1.1-1.2-26.48,1.17-18.78-4.05-13.21-.9c-2.92-2.4-5.6-4.44-6.73-5.12-2.79-1.67-22.04-17.58-30.69-21.21-8.65-3.63-25.12-3.63-39.91-10.04-14.79-6.42-17.3-1.12-22.6-1.68-5.31-.56-.28-5.58-2.24-8.93-1.95-3.35-13.11-6.14-18.97-20.93s-10.05-17.02-12-21.77c-1.96-4.74-1.4-8.93-3.91-11.44-1.67-1.67-7.04-5.43-11.76-7.77v-4.03l7.82-9.86v-9.3l-2.84-7.56-.38-5.38,7.12,1.65,5.86-6.75,5.51,2.32,22.48-1.73h3.4l2.93,7.76,14.7,4.17c11.03,9.66,11.63,9.66,13.07,9.66.8,0,1.43-.19,5.03-1.35,1.81-.59,5.16-1.67,6.09-1.82.67-.01,2.36-.19,6.54-2.56l6.48,1.55c9.69,7.34,10.56,7.34,11.76,7.34h8l11.05-1.83,6.26,6.26,16.12,2.56,10.14,13.15,23.71,1.88,7.97,7.98,9.85,5.68,13.21,10.49,15.08,1.94,12.25,4.54,9.13,6.23,8.02-2.01,10.1,15.68,11.87,3.95,12.54,8.5,1.61-.51c5.08-1.6,10.82-3.32,12.85-3.82,1.02.5,3.12,1.77,5,3.02l1.23.82,1.44-.31c1.35-.29,3.01-.46,3.77-.42,1.1.8,4.13,2.62,13.28,7.2l.96.47,27.1-3.48,10.55-2.37,17.32,9.75,22.54,2.33,24.79-.75.57-.07c7.92-1.55,21.42-4.02,23.88-4.02h22.76l9.15-2.29c16.81,13.45,18.54,13.45,19.81,13.45,1.95,0,15.29-2.85,23.07-4.55l1-.22,4.74-4.73,2.52-9.38,17.6-12.67,12.15-11.73,23.23-1.97Z"/>
  <path id="Quillón" class="st0" d="M557.27,900.11l2.75,7.32v5.59l-7.82,9.86v4.59c-3.71.93-4.78,7.62-9.71,10.21-5.3,2.79-5.02,8.93-8.37,12-3.35,3.07-4.74-4.19-9.77-5.86-5.02-1.68-16.74-1.95-17.02-3.07-.28-1.12,6.14-6.42,7.26-7.81,1.11-1.4-10.05-11.73-14.24-12.56-4.18-.84-5.58,6.69-7.53,8.65-1.95,1.95-3.91-10.61-5.58-13.4-1.68-2.79-4.75-1.39-11.72-3.63-6.98-2.23-17.31,10.05-18.7,16.19-1.4,6.14,2.23,7.81,2.23,8.93s-.56,4.75-.56,8.93-.83,7.26-5.02,6.98c-4.19-.28-3.63-3.63-5.58-3.91-1.95-.28-7.54,2.51-13.95,2.23-6.42-.28-7.26-6.14-13.96-7.53-6.7-1.4-8.09,5.58-12,5.86-3.9.28-12.83-5.02-21.21-5.02s-12.56-1.12-19.25-2.79c-6.7-1.68-17.03-.84-18.98-3.35-1.95-2.52,1.67-6.42,2.79-9.49s-1.39-4.19-3.07-5.58c-1.67-1.4,4.47-5.86,5.3-6.14.84-.28,3.35-5.86,4.47-5.86s1.12.55,4.18,3.62c3.07,3.07,5.31,1.12,10.89.84,5.58-.28,12,5.58,12,5.58,0,0,25.11,1.68,27.63.56,2.51-1.11,8.09-7.53,9.76-12.28,1.68-4.74-1.67-8.65-3.34-11.16-1.68-2.51-6.14-5.3-6.14-7.81s7.81-11.45,7.81-11.45c0,0,16.46,1.96,16.46-4.18s-9.2-7.82-11.16-8.93c-1.95-1.12-14.23-10.33-17.02-13.12s-11.72-6.98-14.79-8.37c-3.07-1.4,2.23-7.54,3.07-10.88.83-3.35-.84-8.66-.84-10.33s-5.02-12-6.14-14.51c-1.12-2.51-4.19-3.35-5.58-5.86-1.4-2.51,1.67-4.19,3.07-5.86,1.39-1.68,8.93-7.26,9.21-16.19.28-8.93-4.19-7.53-5.02-8.37-.84-.84,5.02-4.19,5.3-5.58.13-.65.2-2.9.03-5.21l2.96-2.52,3.51-3.15-.64-2.13c-.54-1.79-1.16-3.96-1.39-4.89.21-1.34.62-4.45,1.61-12.24.17-1.57.39-3.35.58-4.73,2.51-.04,6.03-.1,7.93-.13,2.67,1.61,5.41,3.28,5.84,3.58h.01c1.52,1.02,9.1,3.38,10.16,3.38h5.3c1.01,0,3.47-.26,7.95-.78,1.01-.12,1.81-.21,2.14-.24,1.44-.01,1.82-.23,10.83-8.12l.89-.78,1.57-7.77c.27-.35.56-.68.78-.89.55-.06,1.33-.16,2.41-.3,1.88-.24,5.03-.65,5.99-.65,1.21,0,6.59-.2,12.47-.42,2.09-.08,3.68-.14,3.9-.14,1.78,0,1.97,0,13.68-12.5,3.16,3.89,4.03,4.89,4.43,5.26.24.26.86,1.03,1.54,1.88l-.98,4.17c-7.1,7.81-7.1,8.4-7.09,9.7-.01.1-.02.22-.04.37-.14,1.3-.38,3.49.64,5.37.82,1.54,5.13,7.11,6.09,8.07,1.02,1.02,3.95,4.04,4.6,4.8.39.64,1.48,2.36,4.85,7.57l1.75,11.83.92.84c3.62,3.31,7.63,7.03,8.94,8.33.15.41.35.95.63,1.67.36.95.98,2.58,1.24,3.38-.11.64-.4,1.78-.69,2.36-.46.86-4.12,6.29-7.39,11.04l-.87,1.27.34,1.49c.88,3.86,1.87,8.48,2.05,9.73-.61,3.59-.83,11.64-.83,11.73,0,2.89.73,9.14,1.03,10.34.37,1.47,1.41,2.33,2.41,3.17.61.5,1.31,1.08,1.9,1.81,1.67,2.07,9.71,9.05,11.45,10.54,1.5,1.4,3.07,3.07,3.48,3.69.64,1.74,5.63,15.1,6.36,16.2.75,1.14,9.07,14.4,10.17,16.39.37,1.06,1.28,3.15,3.58,8.16l.87,12.41Z"/>
  <path id="Ránquil" class="st0" d="M500.11,690.49c-1.61,2.11-4.98,5.82-7.93,8.83l.45.44c-4.77,5.1-9.86,10.44-11.78,12.32-.61.02-1.5.06-2.8.11-4.13.15-11.03.41-12.21.41-1.31,0-3.79.31-6.89.71-1.13.14-2.29.29-2.66.32-2.49.18-4.54,2.51-5.82,4.43l-.39.58-1.39,6.86c-2.63,2.3-5.49,4.74-6.71,5.72-.38.04-.88.1-1.56.18-1.89.22-6.32.73-7.14.73h-4.93c-1.28-.34-5.58-1.75-6.66-2.21-.61-.4-2.23-1.42-6.98-4.26l-.85-.52-1,.02s-11.14.18-11.67.18c-3.3,0-3.68,2.92-4.21,6.96-.26,1.96-.47,3.91-.47,3.91-.53,4.19-1.41,10.94-1.61,12.25-.24.8-.21,1.44,1.01,5.59l-7.03,5.99.18.21c-.85.62-1.64,1.06-2.29,1.06-2.51,0-2.23-11.17-4.18-12.28-1.96-1.12-2.51-6.14-2.79-7.26-.28-1.11-4.19-5.86-6.14-12.56-1.96-6.69-4.47-6.97-6.42-9.48-1.96-2.52-7.26-2.24-13.12-3.35-5.86-1.12-12.28-15.35-12.28-15.35,0,0-12.56,0-14.79-3.35-2.23-3.35-13.67-10.05-16.46-12.84-2.79-2.79-16.75,4.47-22.33,3.63-5.58-.84-3.63-2.51-4.74-5.3-1.12-2.79-5.58-4.19-3.63-8.1,1.95-3.9,5.02-9.2,4.46-12.55-.23-1.42-.47-3.24-.92-5.04l6.28-5.19c2.16.4,4.17.87,4.81,1.11,2.42,1.48,9.43,2.56,12.97.38,1.91-1.18,5.23-3.58,6.81-4.73l10.93-.39.99-1.01c2.6-2.68,6.34-5.89,7.76-6.39,3.16-1.11,7.16-3.04,8.94-5.12.58-.68,1.79-2.08,3.2-13.84,1.5-5,3.33-10.79,3.94-12.31.39-.46.99-1.2,2.03-2.51.78-.98,2.04-2.56,2.47-3.05.32-.21,1.08-.64,1.65-.96,2.04-1.14,3.57-2.03,4.57-3.04.93-.92,1.76-2.34,2.83-4.25.22-.39.51-.92.74-1.3,1.98-1.06,3.77-3.19,4.28-3.87.46-.6,2.92-3.01,5.22-5.18.43.07.56.43.69.81,1.09,3.14,1.71,9.41,1.86,11.56l.07,1.01.59.81c1.43,1.95,6.47,8.32,11.57,8.32,2.47,0,7.84.58,10.8.94l12.09,12.6c1.73,2.07,14.01,16.62,17.57,19.8,4.42,3.95,8.92,4.59,15.81,5.16,2.07.17,4.31.2,6.47.22,3.88.04,9.18.09,10.73,1.39,2.33,1.96,4.29,6.48,5.07,8.84.03.1.07.24.11.41.55,2.08,1.99,7.62,7.32,8.46,1.01.16,1.94.21,2.85.27,2.46.14,4.4.26,7.22,2.53,1.16.94,1.26,2.44,1.22,5.43-.03,2.91-.08,6.54,2.99,8.8,1.26.93,3.12,2.08,5.08,3.29,1.71,1.06,4.53,2.8,6.15,4.01Z"/>
  <path id="Coelemu" class="st0" d="M368.15,576.87c.59,1.18,1.02,2.54,1.27,3.52-5.89,5.54-6.45,6.48-6.62,6.75-.25.34-1.12,1.13-1.64,1.5-1.6.45-2.46,1.98-3.66,4.12-.46.82-1.32,2.34-1.67,2.72-.42.42-2.13,1.37-3.04,1.88-1.6.9-2.46,1.4-3.1,2.03-.48.49-1.35,1.56-3.08,3.73-.73.92-1.74,2.19-1.94,2.41-.69.69-1.18,1.18-5.34,15.05l-.09.29-.04.3c-.48,4.08-1.29,9.09-1.8,10.61-.73.6-2.82,1.85-5.74,2.88-3.07,1.08-7.29,4.96-9.46,7.1l-10.31.37-.88.64s-4.93,3.65-7.17,5.03c-.94.48-4.37.14-5.57-.32-.71-.49-2.39-1.27-8.97-2.37l-1.57-.26-7.85,6.49c-3.35-2.2-6.7,6.43-12.55,6.15-5.86-.28-3.07-3.35-9.21-1.95-6.14,1.4-9.77,4.46-11.72,3.07-1.95-1.4,6.42-8.65,7.81-11.44,1.4-2.79-.27-5.58-10.88-6.7-10.6-1.12-2.23,2.51-7.81,3.91-5.58,1.39-4.47.56-8.1-1.12-3.62-1.67-1.95-10.6-1.95-13.95s.56-10.89,2.23-13.68c1.68-2.79-2.79-4.74-1.95-10.6.84-5.86-7.81-10.89-7.81-10.89,0,0-12.28-11.16-13.12-12.55-.84-1.4-2.51-9.21-.84-14.52,1.68-5.3,9.21-5.3,10.89-5.86,1.67-.55,5.3-5.3,5.86-6.69.55-1.4,1.67-6.42,1.67-11.45s-7.25-10.32-10.05-14.51c-2.79-4.18-.83-8.37-.83-13.11s-1.68-15.91-5.03-18.42c-3.34-2.51-11.72,6.97-15.34,8.37-3.63,1.4-10.61-3.35-11.73-5.58-1.11-2.23-6.41.84-9.76,1.95-3.35,1.12-5.31-3.63-7.82-5.02-2.51-1.4-5.3.28-5.3-1.12s-1.67-7.25-1.12-9.49c.56-2.23,2.79-12,4.75-16.74,1.49-3.62,2.49-20.4,2.89-28.15,4.82-.07,10.34-.15,11.96-.16.11.08.25.19.36.27.81.63,2.04,1.58,3.94,2.11,1.9.52,4.58.48,7.01-2.47,2.14-.24,7.61-.48,14.94-.06,7.5.43,13.75,4.35,17.48,6.69.67.42,1.25.78,1.75,1.07,2.59,1.51,6.74,1.53,11.54,1.55,3.51.01,7.14.02,9.61.64,2.34.59,3.55,1.5,4.83,2.47,1.59,1.2,3.56,2.69,6.93,2.79,3.64.13,6.98-1.78,9.92-3.46,1.44-.82,2.94-1.68,3.93-1.92.3.18.78.88,1.08,1.53.14,2.26.68,10.91.8,13.76.06,1.48.71,2.79,1.83,3.68,2.39,1.89,5.9,1.23,9.62.52,1.47-.28,2.99-.57,3.9-.57h.2s.05.1.07.14c.5.99,1.27,2.5,3.03,4.19,1.6,1.53,3.54,2.6,5.42,3.64,1.6.89,4.01,2.22,4.16,3.08.18,1.06-.11,1.56-.85,2.68-.66,1.01-1.57,2.39-1.57,4.26s.56,3.82,1.2,6.17c.34,1.23.68,2.49.97,3.8.26,1.13.2,4.55.15,7.58-.1,5.9-.2,12.01,1.09,15.59,1.96,5.43,8.91,10.05,12.24,12.27.43.29.78.52,1.02.69.72.55,2.55,3.26,3.53,4.72,1.03,1.52,2,2.97,2.84,3.94.24.28.31.45.49.94.65,1.72,1.5,3.44,4.89,5.58,3.65,2.32,5.65,2.89,8.42,3.67.76.22,1.6.45,2.59.76,1.61.51,3.68,4.51,4.79,6.66.97,1.88,1.73,3.36,2.71,4.34,2.02,2.02,6.02,2.71,13.35,2.31.46.6,1.07,1.27,2.05,2.02.78.61,1.93,1.4,3.27,2.31,2.05,1.4,6.86,4.67,7.6,5.84Z"/>
  <path id="Cobquecura" class="st0" d="M208.73,307.82c1.67-11.16-11.17-46.88-13.4-54.14-2.23-7.26,0-18.98,1.12-21.77,1.11-2.79,4.46-13.95,6.97-20.09,2.52-6.14,5.31-17.02,3.35-27.35-1.95-10.33-14.51-25.12-14.23-33.49.28-8.37,15.63-20.93,17.58-25.95,1.96-5.03-3.35-16.75-4.46-20.09-1.12-3.35,1.67-1.96,3.35-5.31,1.67-3.35-8.66-12.56-10.05-15.63-1.4-3.06,6.7-2.23,6.7-2.23l6.14-5.3s12.28-5.02,13.11-6.7c.84-1.67,2.79-6.7,4.19-7.53,1.39-.84,6.98,2.23,11.44,2.79,4.47.56,6.7,2.79,9.49,5.02,2.79,2.23,8.37-1.39,8.65,1.12s5.86,8.65,7.53,8.65,8.38-10.33,8.38-10.33c0,0,3.35,5.86,5.58,5.86s3.91-4.46,7.53-4.74c3.63-.28,5.58,5.58,6.98,9.21s7.81,2.51,8.93,3.35c1.12.83,2.51,3.35,3.35,6.97.84,3.63,3.91,6.7,10.05,5.86,6.14-.83,1.11-4.18,1.11-6.69s1.12-3.35,3.07-5.86c1.96-2.51.28-12.56,1.4-13.4,1.11-.84,5.3,3.35,6.97,6.98,1.68,3.63,8.38,3.63,9.77,7.81,1.4,4.19-1.67,3.63-3.07,5.58-1.39,1.96.56,7.82,3.07,12.28,2.51,4.47,10.61-1.39,14.51,1.96,3.91,3.34,10.33,2.23,12.28,6.69,1.96,4.47-3.35,1.96-4.74,6.14-1.17,3.5,3.89,3.49,5.76,4.04-.54.74-1.01,1.4-1.33,1.91-2.02,3.2-2.41,9.94-2.49,11.92l-.13,3.5,16.14.6c1.06,2.5,3.04,6.42,5.77,8.93,1.81,1.67,3.79,3.23,5.54,4.61,1.58,1.25,3.08,2.43,3.75,3.15.08.09.16.17.25.26-4.07.11-11.63-.44-16.58-.79-9.66-.69-13.8-.91-15.83-.33-3.95,1.13-8.58,5.41-12.99,9.86l-.52.52c-2.13,2.12-15,12.9-20.8,15.99-5.88,3.14-15.25,6.21-20.46,6.72-2.25.22-6.07-1.4-9.14-2.71-3.5-1.49-6.52-2.78-9.18-2.6-2.32.16-4.3,1.18-5.73,2.95-2.1,2.59-2.46,6.2-2.1,8.71.42,2.93,2.93,20.11,2.93,20.11l.43,2.92,18.86.45c.8.85,1.99,1.86,3.74,2.9,2.5,1.48,4,3.47,5.32,5.39.29.43.99,2.15,1.51,3.4,2.58,6.29,4.54,10.47,8.13,11.29.54.12,1.19.23,1.9.35,3.73.62,5.66,1.23,5.87,2.83.16,1.24-.93,2.84-2.08,4.54-1.73,2.53-4.09,6-2.63,10.12.77,2.19,2.52,4.83,4.55,7.89,2.38,3.59,5.97,9,5.86,11.43-.1,1.99-1.36,4.23-2.58,6.41-1.69,3.01-3.44,6.13-2.23,9.36,1.69,4.5,6.6,7.31,9.91,9.2,2.41,1.38,7.18,6.86,7.84,9.42.75,2.88.63,4.35-.58,7.5-1.36,3.53-2.74,10.9-1.72,13.94.48,1.47.72,6.18.11,7.43-.7.75-3.66,2.39-5.44,3.38-2.9,1.62-5.64,3.14-7.22,4.73-3.5,3.49-11.79,12.39-13.84,19.99h-.01c-4.05.15-12.11.48-15.64.91-7.66.93-12.42,4.46-12.42,9.2,0,1.24.26,2.31.56,3.21-.73.11-1.41.18-2.04.25-1.61.17-3,.31-4.27,1.11-.75.46-1.25,1-1.65,1.43-.53.57-1.03,1.11-2.68,1.77-1.18.47-3.43.49-5.24.5-2.75.03-5.12.04-6.9,1.27-1.17.82-2.11,2.16-3.2,3.71-1.04,1.49-2.77,3.98-3.93,4.33-1.83.57-4.43.14-6.15-.14-.46-.08-.87-.15-1.25-.2-1.63-1.48-5.9-6.23-9.09-9.8-10.6-11.8-11.64-12.76-13.87-12.76-2.63,0-18.56,5.69-21.05,7.52-2.69,1.98-6.05,4.43-6.3,8.01-.02.18-.03.43-.04.72-.48,9.04-2.38,11.13-3.17,11.61-.85.52-3.35-1.16-5-2.27-2.29-1.53-4.65-3.12-7.28-3.12s-6.12,1.05-9.39,2.07c-2.03.64-4.14,1.3-5.38,1.44-.64.07-1.27.13-1.86.17,6.84-13.21,16.22-31.53,22.35-44.27,10.61-22.05,12-37.4,13.68-48.56Z"/>
  <path id="Trehuaco" class="st0" d="M444.86,493.76c-.4.97-2.96,3.21-4.66,4.71-2.91,2.55-5.91,5.18-7.42,8.12-1.74,3.37-2.27,6.85-2.73,9.91-.29,1.9-.56,3.7-1.09,5.17-.45,1.28-1.33,2.07-2.84,3.36-1.58,1.33-3.54,3-4.74,5.77-1.56,3.59-.92,6.18-.44,8.07.26,1.04.4,1.67.31,2.39-.04.33-.09.48-.09.5-.09.1-.42.36-.67.55-.94.71-2.35,1.79-3.82,3.96-1.75,2.58-2.1,3.94-2.17,5.85-.03.69-.06,1.34-.61,2.91-.97,2.76-1.22,3.12-1.67,3.78-.3.44-.72,1.05-1.3,2.11-.48.87-2.53,1.35-4.69,1.87-.82.19-1.67.39-2.53.63-3.12.86-20.53.9-25.87.06-3.42-.54-6.13-2.69-8.31-4.41-.58-.46-1.13-.89-1.63-1.25-2.52-1.82-6.93-1.19-13.12,1.89-5.58.31-7.52-.21-8.02-.39-.34-.49-.92-1.63-1.36-2.48-1.91-3.7-4.52-8.75-8.92-10.13-1.06-.33-1.96-.58-2.77-.81-2.52-.72-3.79-1.08-6.59-2.85-1.68-1.06-1.82-1.44-2.07-2.12-.28-.74-.69-1.84-1.76-3.08-.56-.65-1.46-1.98-2.32-3.26-2.15-3.19-3.68-5.37-5.27-6.5-.29-.21-.7-.49-1.21-.82-2.28-1.53-8.36-5.57-9.53-8.83-.86-2.37-.76-8.57-.68-13.1.07-4.51.1-7.36-.31-9.21-.33-1.48-.72-2.89-1.06-4.13-.43-1.56-.87-3.17-.94-4.08.1-.18.27-.44.41-.65.96-1.45,2.56-3.89,1.9-7.72-.72-4.17-4.41-6.21-7.67-8.01-1.49-.82-3.03-1.67-3.96-2.57-.91-.87-1.26-1.57-1.64-2.31-.97-1.92-2.36-3.97-6.51-3.97-1.57,0-3.42.35-5.21.69-.92.18-2.23.43-3.24.54-.23-4.35-.73-12.21-.75-12.6l-.03-.46-.14-.43c-1.29-3.87-4.79-7.55-9.41-6.49-1.97.46-3.85,1.53-5.85,2.67-2.14,1.22-4.57,2.6-6.23,2.55-1.09-.04-1.57-.36-2.93-1.39-1.53-1.15-3.63-2.74-7.36-3.67-3.29-.82-7.35-.84-11.27-.85-2.8-.01-7.02-.03-8.04-.59-.45-.26-.97-.59-1.56-.96-4.02-2.52-11.5-7.22-20.8-7.75-4.38-.25-8.79-.3-12.43-.16-5.76.24-6.57.76-7.41,1.6-.29.3-.5.6-.68.86-.07.1-.17.24-.27.37-.39-.16-.71-.41-1.21-.79-.9-.69-2.25-1.74-4.29-1.74-.93,0-6.79.08-12.01.15l.71-17.03s1.94-3.7,4.94-9.46c1.32.02,3.72-.01,6.34-.31,1.9-.22,4.22-.95,6.67-1.71,2.63-.83,5.62-1.76,7.27-1.76.63.07,2.37,1.23,3.41,1.93,2.24,1.51,5.31,3.57,8.59,3.57,1.29,0,2.62-.32,3.94-1.12,5.2-3.16,6.22-11.34,6.53-17.23,0-.16,0-.3.02-.42.43-.81,2.55-2.36,3.44-3.01,1.65-1.09,12.35-4.91,16.14-5.95,1.97,1.86,6.39,6.78,9.46,10.2,10.09,11.24,10.94,12.03,13.09,12.03.2.01.85.11,1.32.19,2.37.39,5.95.98,9.35-.07,3.46-1.06,5.76-4.36,7.61-7.01.44-.63,1.02-1.45,1.36-1.85.66-.12,2.08-.13,3.06-.14,2.52-.02,5.38-.04,7.78-1,3.11-1.24,4.43-2.66,5.21-3.51.06-.06.11-.12.16-.17.33-.06.89-.12,1.35-.17,1.17-.12,2.78-.29,4.66-.74,1.84-.44,3.13-1.34,3.83-2.68,1.03-1.99.28-3.91-.22-5.18-.25-.64-.49-1.25-.51-1.75.35-.59,2.52-1.86,6.27-2.32,2.78-.33,8.93-.63,13.13-.79-3.41,16.54.21,18.64,1.85,19.6,3.35,1.95,9.04,7.36,9.46,10.07,1.02,6.51,2.13,10.61,3.6,13.29.45.81.92,1.55,1.34,2.2.51.8,1.29,2.01,1.32,2.33-.13.33-.8,1.22-1.25,1.81-1.85,2.48-4.66,6.21-2.78,10.31,1.1,2.4,3.36,4.13,5.34,5.66.96.74,2.58,1.98,2.8,2.45.62,2.71,1.9,8.35,8.48,9.89,5.29,1.23,6.89.88,15.62-3.49,4.21-2.1,8.08-5.87,11.49-9.2,2.17-2.11,5.41-5.26,6.76-5.63,3.56,1.41,9.5,6.25,10.9,8.48-.55.85-1.53,2.18-2.3,3.22-4.13,5.61-8.04,10.9-5.78,14.85,2.09,3.67,7.52,6.72,11.46,6.72.53,0,1.03-.06,1.5-.17,1.46-.37,3.2-1.41,6.14-3.21,2.14-1.31,5.08-3.11,6.51-3.51,1.99-.56,3.77-1.2,5-1.69,2.44,4.66,7.39,10.58,9.13,12.6l.92,1.07,16.38,1.52c.09,1.07.25,2.26.5,3.32.56,2.4,2,3.69,2.86,4.47.02.02.04.03.06.05.05,1.82-.24,6.76-.73,9.97Z"/>
  <path id="Quirihue" class="st0" d="M565.66,224.38c-1.4,1.67-1.12,6.97-1.96,12-.83,5.02-1.11,4.46-6.42,6.97-5.3,2.52-6.69,5.31-9.48,6.7-2.79,1.4-5.59-.56-6.42-2.23-.84-1.68-2.51-1.95-7.82-.28-5.3,1.67-8.09-3.35-9.76-5.3-1.68-1.96-11.17-.56-13.4,1.11-2.23,1.68-4.74,6.42-2.79,8.38,1.38,1.38,1.51,8.35,1.76,12.7-2.18.99-4.24,1.84-4.83,1.98-.78.1-4.12-.04-5.72-.11-3.07-.13-3.54-.15-4.32.11-.05.01-5.15,2.14-5.69,5.39-.17,1.03.06,2,.7,3.51-2.28-1.62-3.81-2.44-5.13-2.63-2.36-.34-3.71.73-4.31,1.39-1.82,2.02-1.15,4.73-.55,7.11.81,3.27,2.4,11.4,2.4,14.64q0,2.14-.59,3.66c-.28.72-.67,1.7-1.17,3.16-.63,1.83-.97,2.2-1.21,2.48-.92,1.02-1.49,2-1.86,4.22-.1.61-.19,1.16-.27,1.68-.32,2.17-.46,3.07-1.28,4.34-.39.53-2.25,2.22-3.75,3.57-7.2,6.53-11.91,11.13-11.77,15.37.14,4.45,4.53,9.25,8.63,13.39.23.23.49.5.69.71.13,1.29-.05,4.37-.17,6.48-.11,1.92-.22,3.91-.22,5.54,0,6.49,2.96,9.17,5.86,10.94,1.44.88,3.01,1.34,4.38,1.57.21,4.18.18,8.18-.04,10.69-.47-.33-.99-.64-1.58-.89-.46-.19-.97-.43-1.51-.69-2.73-1.29-6.47-3.07-11.08-2.78-5.54.33-16.52,7.48-17.78,10.3-.17.39-.63,1.43-.66,5.15-2.05.12-4.81.33-7.8.76-5.39.77-6.55,1.14-9.12,4.11-.26.3-.56.65-.93,1.05-2.68,2.95-14.18,20.18-15.21,25.55-.7,3.61.53,6.61,1.63,9.26.61,1.49,1.19,2.9,1.41,4.34.09.58.14.97.17,1.23-.59.79-1.28,1.89-2.07,3.99-1.58,4.17-1.57,6.51-1.02,9.09-1.05.42-2.79,1.07-4.75,1.61-2.37.67-5.37,2.51-8.28,4.29-1.37.84-3.41,2.09-4.11,2.36-1.01-.03-3.69-1.29-4.9-2.7.6-1.78,3.52-5.74,4.99-7.72,1.86-2.53,2.94-4.02,3.49-5.29.39-.92.69-2.44-.16-4.4-2.02-4.65-10.89-11.19-15.4-12.83-4.62-1.68-8.88,2.47-13.81,7.28-3.05,2.97-6.5,6.33-9.74,7.95-7.47,3.73-7.6,3.7-10.9,2.93-1.84-.43-2.5-1.38-3.24-4.62-.64-2.83-3.04-4.67-5.36-6.45-1.25-.96-2.79-2.14-3.21-2.96.06-.7,1.35-2.42,1.98-3.26,1-1.32,1.93-2.57,2.35-3.98.97-3.31-.75-5.99-2.12-8.14-.38-.59-.77-1.19-1.1-1.8-1.54-2.79-2.5-8.96-2.82-10.99-.95-6.06-9.04-12.65-12.43-14.78-.53-1.65-.29-7.89,2.59-18.96,1.27-4.88,7.07-11.96,12.07-16.96.89-.9,3.54-2.37,5.67-3.56,4.1-2.28,6.68-3.77,7.91-5.67,2.46-3.81,1.26-11.5.69-13.37-.2-1.23.4-6.23,1.59-9.32,1.5-3.9,2.07-6.93.82-11.76-1.28-4.94-7.64-11.75-11.21-13.78-2.32-1.33-5.8-3.32-6.71-5.41.09-.71,1.07-2.45,1.73-3.62,1.46-2.61,3.28-5.86,3.46-9.49.23-4.72-3.45-10.27-7.01-15.64-1.63-2.45-3.31-4.98-3.79-6.35-.28-.78.79-2.34,1.81-3.85,1.67-2.45,3.75-5.51,3.24-9.39-.92-7.03-8.17-8.24-11.66-8.83-.41-.07-.79-.13-1.14-.2-1.06-1.08-2.74-5.17-3.57-7.19-.97-2.35-1.54-3.73-2.22-4.71-1.8-2.62-3.96-5.35-7.52-7.45-1.52-.89-2.18-1.62-2.39-1.89l-.54-1.88-17.16-.41c-.74-5.03-2.19-14.99-2.5-17.16-.18-1.24.08-2.67.61-3.32.17-.21.35-.34.77-.37.96-.08,3.97,1.21,5.96,2.06,3.99,1.7,8.52,3.63,12.56,3.24,6.17-.6,16.3-3.9,23.07-7.51,6.75-3.6,20.28-15.05,22.46-17.22l.54-.54c1.78-1.8,7.21-7.28,9.88-8.04,1.43-.29,8.39.2,13.47.56,18.44,1.32,22.03,1.13,24.04-1.28,2.53-3.04,2.12-6.1-1.21-9.1-.32-.29-.62-.56-.86-.82-1.04-1.13-2.67-2.41-4.56-3.9-1.65-1.3-3.51-2.77-5.13-4.26-2.31-2.12-4.23-6.72-4.78-8.32l-.77-2.28-13.69-.51c.27-2.2.68-4.25,1.13-4.95.54-.85,1.68-2.38,2.95-4.02,3.41-1.12,9.6-.92,17.4-.92,9.2,0,16.18-3.63,19.25-4.75,3.07-1.11,8.37,3.07,9.77,4.47,1.39,1.39,2.23,1.11,7.25.56,5.03-.56,13.96-5.86,15.91-3.35,1.95,2.51-9.77,17.02-9.49,20.09.28,3.07,4.75,5.86,6.7,8.37,1.95,2.51.28,7.54.28,10.61s2.79,5.3,3.35,6.42c.56,1.11-2.51,5.02-4.19,7.53-1.67,2.51-5.58,5.58-5.58,9.77s4.47,8.09,8.09,9.49c3.63,1.39,10.61,6.14,12.56,6.14s3.07-.84,7.26-3.63c4.18-2.79,7.25.28,10.32.28s4.75,3.9,5.86,5.3c1.12,1.4,13.4-1.4,16.19,2.23s10.6,13.12,12,13.96c1.4.83,10.88,2.51,14.51,1.95s7.82-3.63,9.21-5.02c1.4-1.4,8.65-1.12,11.44-3.35,2.79-2.24,5.58-9.21,7.26-6.14,1.67,3.07,9.49,7.25,12,10.6,2.51,3.35,5.02,8.93,3.63,10.61Z"/>
  <path id="Ninhue" class="st0" d="M582.85,357.76l-6.1,16.75,14.62,17.52c1.28,1.73,2.62,3.34,4.06,4.28l-.14.12c1.02,1.18,2.42,2.51,3.91,3.91,2.35,2.23,6.29,5.95,6.66,7.72.78,3.85,1.1,6.72-1.64,11.38-1.44,2.45-9.17,6.67-14.29,9.46-6.61,3.62-10.43,5.77-11.94,8.06-2.19,3.33-2.97,11.94-3.58,25.69-.06,1.38-.11,2.49-.15,3.16-.23,3.33-.92,4.1-2.21,5.28-.58.52-2.16.42-3.2.35-.46-.03-.88-.05-1.24-.05-3.68,0-7.42,4.05-9.7,7.84-.36.6-.75,1.22-1.14,1.85-2.17,3.49-4.62,7.44-5.19,11.67-.4,3.04-.53,8.71-.6,12.29-1.58.1-3.63.17-5.01.12-2.41-.1-4.97,1.53-8.93,4.17-1.58,1.04-3.92,2.6-4.94,2.96-1.98-.2-8.09-4.28-9.65-5.87-.45-1.05-1.39-4.46-2.04-7.22l-.7-2.96-3.02.28c-12.65,1.15-32.22,2.87-34.29,2.87-1.81,0-1.88-.03-3.67-.7-.43-.17-.94-.36-1.56-.58-2.2-.8-8.73-6.05-10.52-7.9-.5-2.58-1.12-12.38-1.12-14.02,0-2.52-2.1-4.93-3.86-6.51l-1.01-.9-11.56.02-8.05-.28-11.79-.8c-3.65-4.37-7.52-9.76-7.96-11.67-.17-.72-.34-1.36-.49-1.94-.68-2.58-.89-3.36.35-6.63.62-1.62,1.01-2.11,1.29-2.47,1.56-1.97,1.41-3.51.99-6.27-.34-2.28-1.15-4.24-1.86-5.97-.95-2.3-1.52-3.79-1.23-5.26.63-3.25,10.68-19.04,13.52-22.17.41-.45.75-.84,1.04-1.18q1.06-1.22,4.82-1.76c5.53-.79,10.35-.8,10.39-.8h3.67s-.17-3.67-.17-3.67c-.1-2.02-.09-4.25.01-5.32,2.05-1.83,9.03-6.2,11.77-6.37,2.83-.17,5.39,1.05,7.66,2.12.64.31,1.24.59,1.8.82.3.13.81.63,1.21,1.04.96.95,2.56,2.54,4.91,2.19,1.59-.23,2.9-1.28,3.89-3.11,2.08-3.84,1.47-15.22,1.11-19.93l-.28-3.47-3.48.24c-.58.05-2.54,0-3.76-.75-1.56-.95-2.51-1.7-2.51-4.97,0-1.43.11-3.32.21-5.15.38-6.62.39-9.09-.95-10.81-.31-.4-.73-.83-1.58-1.69-5.17-5.22-6.47-7.53-6.6-8.55.65-2.11,6.81-7.7,9.46-10.1,2.81-2.55,4.19-3.82,4.9-4.91,1.67-2.59,1.99-4.7,2.36-7.15.07-.48.15-1,.24-1.57.06-.35.11-.56.14-.67l.03-.03c.77-.86,1.62-1.95,2.62-4.88.45-1.32.79-2.18,1.06-2.87.89-2.27,1.08-3.06,1.08-6.22,0-3.46-1.18-9.84-2.02-13.75.98.73,1.89,1.45,2.45,1.88,1.37,1.07,1.95,1.52,2.43,1.79,1.19.68,4.37,2.5,6.84.35,1.07-.94,2.08-2.73.8-5.94-.62-1.56-1.46-3.3-2.19-4.84-.29-.61-.64-1.33-.93-1.96.07-.05.14-.1.21-.14.54.02,1.33.05,2,.08,3.5.15,5.89.24,7.16.03,1.89-.32,6.64-2.51,9.31-3.79l-.19-.4c2.08.31,4.42.65,6.22,1.29,3.9,1.4,3.9,7.54,6.14,14.52,2.23,6.97,8.09,7.25,10.88,10.32,2.79,3.07,5.86,3.63,8.93,2.51,3.07-1.11,1.39-5.3,1.95-7.53.56-2.24,8.93-7.26,15.63-10.61,6.7-3.35,14.79-8.37,19.26-8.37s10.88,10.61,13.67,16.19c2.79,5.58,6.98,1.11,9.77,1.95,2.79.84.56,3.91,1.95,8.09,1.16,3.46,3.27,2.73,5.38,3.64l-.31,7.12-8.41,11.09-16.52-9.07-1.34,31.12-5.14,16.37Z"/>
  <path id="Portezuelo" class="st0" d="M550.79,604.27c-1.65.76-4.14,1.35-4.96,1.51l-2.83.55-.1,36.34c-.12,0-.24-.01-.36-.02l-1.54-.1-13.91,13.31-10.57,9.54-24.97,1.14c-.56-1.09-1.36-2.12-2.48-3.03-4.57-3.68-8.25-3.9-11.21-4.07-.77-.05-1.5-.09-2.17-.19-.3-.05-.91-.55-1.64-3.32-.09-.35-.17-.64-.24-.85-.64-1.93-3.06-8.5-7.2-11.99-3.47-2.92-9.16-2.97-15.17-3.03-2.13-.02-4.14-.04-5.96-.19-6.66-.56-9.15-1.1-11.72-3.4-2.75-2.46-13.17-14.68-16.96-19.18l-14.03-14.65-1.23-.15c-.36-.05-9-1.15-12.87-1.15h-.01c-.99-.11-3.45-2.29-5.36-4.69-.22-2.46-.85-8.57-2.15-12.31-.99-2.85-2.84-4.39-4.8-5.07-.6-2.75-1.92-5.48-1.94-5.53-1.22-2.44-4.88-5.06-9.92-8.49-.62-.42-1.21-.83-1.73-1.2.58-.16,1.06-.26,1.41-.27.32.24.66.5,1.01.78,2.52,2,6.33,5.01,11.56,5.83,2.78.44,8.75.71,14.63.71s11.82-.28,14.19-.93c.78-.21,1.55-.4,2.29-.57,3.39-.81,7.23-1.72,9.2-5.3.42-.77.69-1.16.95-1.54.84-1.24,1.33-2.12,2.49-5.4.91-2.57.96-4.01,1-4.96.03-.63.03-.82.97-2.2.83-1.23,1.54-1.77,2.28-2.34,1.29-.98,3.05-2.33,3.46-5.76.25-2.04-.15-3.64-.47-4.92-.36-1.45-.55-2.18.07-3.6.55-1.27,1.56-2.13,2.84-3.21,1.7-1.44,3.81-3.23,4.92-6.36.75-2.1,1.08-4.31,1.41-6.46.42-2.78.82-5.4,2.03-7.76.9-1.75,3.51-4.04,5.82-6.06,3.47-3.05,6.46-5.68,6.95-8.82.49-3.23,1.11-10.75.67-12.94-.35-1.75-1.48-2.77-2.23-3.44-.57-.51-.68-.64-.73-.86-.13-.54-.22-1.18-.28-1.82l8.68-.06c.29.33.53.63.66.85.09,2.53.61,14.85,2,17.11,1.19,1.94,10.18,9.47,14.25,10.94.58.21,1.06.39,1.47.55,2.27.85,3.21,1.15,6.14,1.15,2.59,0,23.68-1.88,31.93-2.63.72,2.73,1.54,5.42,2.24,6.51,1.05,1.63,10.07,9,15.78,9,.47,0,.92-.05,1.34-.15,2.07-.54,4.58-2.2,7.22-3.96,1.53-1.02,4.06-2.7,5.02-3,1.43.05,2.68.05,3.78.02l11.71,1.2c.63,2.43,1.58,6.38,1.97,9.56.64,5.17.68,29.18.34,31.48-.56,2.54-1.48,17.04-1.48,19.82,0,1.48.41,3.07.89,4.91.67,2.63,1.45,5.62.94,8.18-.81,4.13-4.3,7.72-6.32,9.49-1.11.98-2.21,2.3-3.37,3.69-1.06,1.27-2.83,3.4-3.6,3.76Z"/>
  <path id="San_Nicolás" class="st0" d="M807.45,488.04c-.12.3-.38.46-1.1.46-3.07,0-12.22,0-14.91,2.06-.18.11-.65.32-.99.48-2.13.98-5.34,2.47-5.59,5.72-.2,2.6,1.97,5.26,6.89,10.25.43.44.77.77.92.95.37.43,1.13,1.17,2.55,2.56.67.66,1.63,1.61,2.49,2.47-.31.22-.64.44-.95.65l-1.19.78-1.92,8.74v8.7l-4.77,5.48,1.53,13.04.39.65c1.05,1.74,1.93,2.93,2.66,3.77-1.15.98-2.41,2.14-3.25,3.13-2.44,1.54-16.37,5.64-20,5.64-4.54,0-16.67.91-17.19.94l-18.76,3.15-12.14-.41-6.62,6.62-17.97.75-18.58,24.71-33.16.75-1.02,1.42c-4.46,6.2-10.25,13.41-12.37,15.07-3.43-.18-16.18-1.28-24.1-2l-1.13-.11-22.02,13.07-15.44-.76-1,.73c-5.79,4.23-14.45,10.51-18.8,13.6l.08-29.14c1.17-.33,2.52-.78,3.74-1.34,2.18-1,4.06-3.25,6.04-5.63.94-1.13,1.91-2.29,2.62-2.92,3.27-2.88,7.41-7.54,8.56-13.39.81-4.12-.26-8.26-1.04-11.28-.31-1.2-.66-2.57-.66-3.16,0-2.9.94-16.59,1.32-18.33.67-3.09.36-28.99-.23-33.82-.68-5.52-2.72-12.62-2.81-12.92l-.66-2.27-8.9-.91c0-.14.01-.3.01-.47.06-3.18.17-9.09.54-11.84.37-2.75,2.4-6.02,4.19-8.9.42-.66.82-1.32,1.2-1.95,1.64-2.72,3.35-4.11,3.97-4.43.16,0,.34.02.52.03,1.96.12,5.59.36,8.36-2.16,2.95-2.69,4.17-5.39,4.48-9.98.05-.71.1-1.87.17-3.33.57-12.99,1.39-20.45,2.4-22.11.88-1.11,5.85-3.82,9.48-5.8,8.79-4.8,14.71-8.23,16.97-12.06,3.97-6.77,3.42-11.59,2.45-16.34-.8-3.93-4.82-7.73-8.71-11.4-.38-.36-.75-.71-1.11-1.05.37-.34.8-.74,1.28-1.2,1.22-1.15,3.14-2.97,4.11-3.73,2.92-.11,13.51-.28,20.22-.37l1.12-.02,6.26-4.62,9.91.9,14.67,11.6,21.11,1.7c6.38,3.44,7.38,3.58,7.92,3.66,1.14.16,2.61-.13,7.06-1.2.8-.19,1.79-.43,2.02-.47.84-.12,1.73-.48,3.11-1.06.52-.22,1.35-.57,1.78-.71.99.08,3.87.41,6.73.76l6.09,7.55,18.4,20.34,28.64,1.58,33.67,13.32-2.54,6.77.29,1.08c.18.66.33,1.45.4,2.07-2.19.91-6.79,2.63-10.76,4.05l-1.22.44-.64,1.12c-1.85,3.26-3.96,6.95-4.19,7.33-.47.69-.84,1.25-1.01,6.57l-.02.73.27.68c.11.27,1.11,2.69,3.49,5.55,2.33,2.79,5.56,4.75,7.85,4.75,2.14,0,9.58-4.21,10.78-5.29,0,0,.01,0,.01-.01.04-.03.08-.06.14-.09l7.53,7.94.08,2.12Z"/>
  <path id="Bulnes" class="st0" d="M698.71,898.4l-1.22,4.43-2.47.59-7.25,2.15-5.28.89h-6.96c-1.5-.91-5.55-3.84-8.86-6.36l-.59-.44-10.66-2.55-1.23.73c-1.75,1.05-3.84,2.1-4.57,2.3-1.23.06-3.09.61-7.86,2.15-.72.23-1.58.51-2.28.72-1.92-1.49-6.11-5.05-9.64-8.15l-.6-.52-12.83-3.64-3.39-8.99h-8.38l-21.19,1.62-8.62-3.63-6.43,7.4-5.1-1.18c-1.6-3.48-3.32-7.33-3.78-8.45-.22-.93-1.21-2.52-5.58-9.53-2.25-3.6-4.69-7.48-5.32-8.46-.75-1.69-5.27-13.6-5.8-15.07-.18-.52-.75-2.11-5.28-6.32l-.1-.08c-4.55-3.93-9.77-8.62-10.63-9.7-1.03-1.26-2.09-2.14-2.87-2.79-.06-.05-.13-.11-.19-.16-.25-1.75-.72-5.87-.72-7.96,0-2.35.5-8.96.7-10.58.36-1,.16-2.44-1.75-10.93,2.4-3.51,6.4-9.39,7-10.6.85-1.7,1.49-4.44,1.49-5.75,0-.9-.23-1.64-1.75-5.63-.24-.63-.46-1.2-.59-1.57-.14-1.32-1.2-2.33-9.88-10.26l-1.6-10.87-.42-.64c-2.27-3.52-4.85-7.52-5.18-8.07-.23-.42-1.04-1.52-5.59-6.07-.7-.74-4.09-5.16-4.82-6.32-.03-.34.03-.99.07-1.36.97-1.27,3.67-4.34,5.96-6.85l.61-.67.34-1.45c.55.33,1,.64,1.26.86.74,1.7,2.4,4.81,4.89,5.52.53.15,1.41.4,17.05.41,1.74,1.38,5.38,4.22,7.27,5.44l.12.08c2.47,1.6,5.27,3.42,9.74,3.42h1.37c3.95.04,8.03.09,10.7-2.01.25-.2.54-.44.88-.71,2.09-1.7,5.99-4.86,9.43-5.77,1.49-.4,6.61-.29,10.72-.2,11.58.26,16.53.13,18.91-2.25s3.81-3.56,4.68-4.19c1.26,1.91,3.04,5.38,3.29,6.61.04,3.54,1.16,6.25,3.26,7.83,1.37,1.03,3.77,2.03,7.48.97,2.27-.65,3.77-1.34,4.86-1.84.48-.22,1.08-.49,1.24-.52.01,0,.29.02,1.15.45,1.46.73,5.03,4.14,7.9,6.89,3.74,3.58,7.62,7.28,10.57,9.03,1.35.81,2.33,1.81,3.28,2.77,2.09,2.14,5.25,5.36,11.28,2.56,2.5-1.16,4.5-2.33,6.1-3.28.47-.27,1-.59,1.45-.84,2.39,2.16,7.5,6.22,16.02,7.08,6.73.68,28.16.14,43.82-.26,6.93-.17,12.91-.32,14.63-.28,2.92.08,5.05-.26,7.15-.95-.04,5.98-.01,15.54.52,18.56.8,4.67,4.68,12.08,8.65,16.52,5.56,6.24,6.19,8.21,6.25,8.66.1.91.26,1.82.43,2.69,0,.02,0,.03,0,.05-.51-.14-.98-.28-1.3-.38-.31-.09-.59-.17-.84-.25-.35-.1-1.43-.5-2.48-.9-7.7-2.89-11.81-4.14-14.35-3.43-2.82.78-4.76,4.05-10.96,18.41-.76,1.77-1.55,3.58-1.99,4.51-.11-.01-.22-.01-.32-.02-1.3-.07-3.48-.18-5.7,1.26-3.65,2.37-10.81,13.61-11.34,18.76l-.12,1.14c-.43,4.07-.75,7.02.23,9.36.27.64.63,1.2,1.05,1.68-2.15,3.05-5.07,7.39-5.98,9.83-.12.33-10.09,30.08-11.17,35.35Z"/>
  <path id="Chillán_Viejo" class="st0" d="M726.15,750.84c-14.59.37-36.64.92-42.93.29-7.13-.73-11-4.34-12.65-5.88-.36-.34-.65-.61-.95-.84-2.53-1.89-5.12-.36-8.13,1.41-1.47.87-3.3,1.95-5.49,2.96q-1.55.72-3.34-1.11c-1.15-1.16-2.57-2.62-4.7-3.88-2.27-1.35-6.01-4.93-9.31-8.08-3.87-3.7-7.21-6.89-9.61-8.09-3.79-1.89-5.8-1.24-8.44-.03-.99.45-2.11.97-3.86,1.47-.56.16-.92.19-1.13.19-.14,0-.21-.01-.21-.01-.1-.11-.48-.8-.48-2.4,0-2.93-4.68-12.25-7.77-13.65-3.24-1.47-6.84,1.14-11.92,6.2-1.96.7-9.49.54-14.04.44-1.2-.03-2.31-.05-3.34-.06.82-8.38-.12-10.16-.44-10.79-.17-.32-.1-1.42-.05-2.22.05-.75.11-1.62.07-2.53-.03-.71.44-2.28.76-3.32.41-1.37.73-2.45.73-3.51,0-.62,0-2.03-3-8.05-.13-4.42-.05-9.57.29-11.01.78-1.04,4.19-3.07,5.67-3.95,1.61-.96,2.47-1.49,3.08-2.04.53-.49,1.12-1.17,1.81-1.96s2.12-2.41,2.72-2.81c1.37-.54,9.67-3.35,14.89-5.1l16.95-2.92.76-.72c1.62-1.51,4.42-4.14,5.02-4.84,0-.01.74-.85,2.13-1.12.13.09.33.28.41.4l.7,1.13,1.27.39c.18.05,4.44,1.33,8.17,1.54,2.46.13,51.06-.59,55.75-1.24,4.2-.59,9.02-5.48,11.41-8.21,7.34-.25,21.11-.73,22.42-.9,2.83-.38,6.03-2.69,6.16-2.78.83-.61,2.36-2.34,4.55-5.16l13.26-.48c1.06.25,2.41.72,2.94,1.07,1.14,2.21,5.18,10.29,5.22,10.36,1.98,4,6.83,13.52,9,15.59,1.81,1.72,11.18,9.75,13.24,11.51l12,18.49c1.17,4.04,2.7,10.11,2.7,11.93,0,3.44,5,11.55,9.44,18.07.14,3.63.21,7.66.09,8.51-.09.58-.29.99-.86,2.09-.29.57-.63,1.23-1,2.05-.41.88-.89,1.71-1.35,2.51-.81,1.43-1.52,2.66-1.73,4-.15.96-.5,7.31-.77,12.21-.54-.26-1.13-.53-1.8-.81-2.46-1.04-5.77-2.63-9.28-4.33-10.43-5.02-18.15-8.6-22.53-8.91-4.93-.35-6.32.23-9.62,1.98-1.1.59-2.47,1.31-4.49,2.23-1.36.61-2.54,1.17-3.59,1.67-4.54,2.14-6.07,2.87-9.81,2.76-1.9-.04-7.39.09-14.99.29Z"/>
  <path id="Chillán" class="st0" d="M728.49,639.04c-1.29.14-14.99.63-23.32.91l-1.59.05-1.01,1.23c-2.8,3.44-6.62,6.74-8,6.94-3.65.51-50.85,1.38-54.39,1.18-1.95-.11-4.23-.64-5.52-.97-1.34-1.44-3.58-2.89-6.39-2.44-3.74.6-5.91,2.84-6.46,3.49-.32.35-2.06,2.01-3.73,3.58l-15.16,2.62-.52.13c-1.43.48-14.02,4.7-15.66,5.38-1.69.7-3.24,2.36-5.23,4.64-.49.56-1.04,1.19-1.23,1.36-.26.21-1.25.8-1.98,1.23-4.38,2.61-7.8,4.83-8.72,7.68-.95,2.96-.72,11.7-.63,14.31l.03.77.35.69c1.12,2.22,2.23,4.7,2.55,5.69-.09.36-.26.94-.4,1.39-.5,1.66-1.12,3.73-1.04,5.62.02.54-.02,1.14-.06,1.78-.11,1.66-.25,3.71.71,5.71.19,1.03.06,4.45-.29,7.88-.89.08-1.64.19-2.27.36-4.89,1.29-9.55,5.07-12.05,7.1-.3.25-.57.47-.79.64-.87.58-4.55.54-6.31.52h-1.44c-2.4,0-3.8-.92-5.93-2.29l-.13-.08c-1.82-1.18-6.15-4.59-7.66-5.8l-.96-.77h-1.23c-6.34,0-13.38-.06-15.89-.17-.29-.44-.68-1.12-.95-1.81-.28-.7-.9-2.25-5.89-4.94l.15-.63-1.03-1.33c-2.22-2.85-2.97-3.69-3.36-4.04-.52-.6-2.57-3.08-4.72-5.72,7.51-8.03,7.51-9.79,7.51-10.88,0-3.08-3.13-5.15-10.21-9.52-1.81-1.12-3.52-2.18-4.55-2.93-.23-.49-.21-2.13-.2-3.12,0-.31,0-.65,0-1l26.45-1.2,12.47-11.26,11.81-11.3c5.2.24,6.4-.36,6.94-.63.89-.45,8.05-5.56,21.27-15.2l15.07.73,21.88-12.98c4.93.44,21.88,1.96,24.31,1.96,1.6,0,4.25,0,16.33-16.6l33.07-.74,18.63-24.78,17.39-.73,6.4-6.4,9.81.33,18.97-3.2c1.47-.1,12.5-.91,16.51-.91s22.51-4.58,25.25-8.01c.82-1.02,3.12-2.97,4.62-4.15,1.35.5,2.44.79,3.38.79.99,0,1.81-.33,2.58-1.09.19-.19.68-.72,2.13-2.31,1.69-1.84,4.24-4.62,4.99-5.37.68-.68,1.35-1.68,2.12-2.83.42-.63,1.13-1.68,1.63-2.3,3.13-.06,12.09-.27,15.04-.67,4.3,1.97,6.88-1.9,8.43-4.22,2.68-4.02,10.07-10.11,12.64-11.88,1.74.2,5.52.69,9.11,1.18l18.36,10.59h27.86c.1,0,.86-.02,2.09-.04,19.38-.37,24.48-.36,25.34-.28-.23-.02-.39-.07-.48-.1.84.24,13.8,1.29,16.49-.4.47-.29,1.53-.95,7.51-8.63l1.47.03-2.59,9.64-5.3,10.62-7.51,10.67-.66,15.65-6.5.22-8.74-5.32-11.65,1.67-.34,2.38-3.01.19-22.72.77-6.43,3.22-4.99-10.36-12.97,8.05-14.94-2.6-13.26-10.31-4.52,13.54-10.84,6.73-3.27,10.91,7.42,6.25-.86,9.25-6.51,10.22,13.41,9.93,17.86,2.23,13.41,9.88,20.34,10.59,3.62,6.67-3.68,11.42,9.9,7.1-6.44,15.97c-2.73-1.75-11.88-7.95-17.65-11.88l-3.16-2.15-17.85,31.87-.07.72c-.17,1.56-.31,5.43,1.93,7.67,1.34,1.33,9.25,7.44,11.91,9.48,1.62,1.58,3.29,3.59,3.66,4.4.19,2.41-.09,5.09-.41,5.69-.59.75-2.73,1.47-5.43,2.37l-.54.18c-3.61,1.2-7.48,1.91-7.52,1.92l-2.79.51-.41,14.23c-.46-.15-.63-.37-.83-.64-.72-.94-1.81-2.36-4.41-3.36-3.5-1.36-5.06-1.16-7.51-.69-1.07.2-2.4.46-4.58.6-2.82.18-5.52.61-8.37,1.07-3.99.63-8.11,1.29-12.89,1.29-1.35,0-2.29-.02-2.98-.06.34-6.36.73-13.22.84-14.38.13-.33.57-1.1.9-1.67.51-.89,1.09-1.9,1.62-3.06.33-.71.63-1.29.88-1.79.65-1.26,1.26-2.44,1.54-4.12.3-1.84.06-8.28-.05-10.97l-.05-1-.56-.82c-3.96-5.77-8.4-13.15-8.79-15.08-.05-3.65-2.6-12.5-3.11-14.25l-.15-.5-13.11-20.2-.38-.33c-3.19-2.72-11.81-10.12-13.33-11.57-1.06-1.13-4.76-7.97-7.59-13.66-.18-.36-4.49-8.98-5.42-10.76-1.49-2.82-5.65-4.03-8-4.5l-.4-.08-17.42.63-1,1.32c-1.54,2.04-3.56,4.54-4.17,5.1-.97.69-2.41,1.38-2.86,1.45Z"/>
  <path id="Coihueco" class="st0" d="M1576.36,933.32c-.86,2.93-6.82,17.49-10.52,22.78-3.9,5.58-7.25,4.46-10.6,3.35-3.35-1.12-12.56,10.32-17.58,10.6-5.03.28-14.24-2.23-15.91-3.63-1.67-1.39-10.05-6.69-17.02-7.81-6.98-1.12-26.52,8.65-28.19,9.49-.06.03-.11.06-.16.1l-7.05-.38-2.39-12.79-6.43,1.48-14.46-15.42-.74-28.25-14.32-15.66-18.83,6.27-17.66,5.05-18.24-.34c-1.86-1.75-3.6-3.61-4.36-4.68,1.04-2.25,4.08-7.8,6.74-12.43l1.41-2.44-43.89-39.7-1.92-17.63-20.81-11.18-6.24-11.22-12.36,1.61-9.32,12.19-29.02-3.99-32.78,20.72-17.32,2.08-18.97-3.16-31.9-18.43-6.67-16.47-69.92-6.88-15.21-3.98-22.25-8.03-26.05-15.14-5.35-18.31-13.69-4.3-14.83-20.77-7.75-2.85-18.48-11.32-18.19-3.56-14.21-20.78-16.94-8.46-12.21-8.77,3.03-9.42-6.07-11.19-21.54-11.16-14.66-10.8-17.85-2.23-6.69-4.95,3.91-6.15,1.37-14.57-6.72-5.65,1.19-3.97,10.74-6.67,2.19-6.55,6.83,5.31,19.29,3.36,8.61-5.35,4.69,9.74,11.43-5.72,21.28-.72,8.8-.55.41-2.82,3.97-.57,8.38,5.1,15.08-.52.83-20.07,6.48-9.21,6.01-11.93,3.97-14.8,12.12-13.76,31.88,1.47,25.37-17.65,13.54,3.12,12.63-1.11,12.04,2.91,11.82.66,7.25,12.62,1.94,15.96-1.74,3.66,36.93,3.03,8.67-5.6c3.92.26,16.72,1.12,21.34,1.59.6.06.95.15,1.14.22.02.22.02.53.02.75.01.71.03,1.6.33,2.51.54,1.63,5.51,17.37,5.56,17.53l.44,1.37,16.57,8.72c1.81,2.17,3.81,4.67,4.13,5.21.58,1.15,5.59,9.45,7.12,11.97l.75,1.25,14.59,3.5,12.99,10.7c5.06,10.89,6.57,11.5,7.69,11.94,1.94.78,33.92,6.76,36.01,7.15,1.66.64,7.19,5.48,11.37,9.66l1.02,1.02h9.35c.54,1.56,1.26,4.34,1.79,6.96l.32,1.62,10.3,5.47,30.3,18.76,1.27-.2c1.14-.17,11.21-1.74,14.15-2.62,1.48-.44,5.06-.97,13.79-.97.57,0,.98.89,1.77,3.81.82,3.05,2.06,7.65,6.77,8.17,3.85.44,9.03-.95,13.59-2.18,1.67-.44,3.38-.9,4.43-1.09.28.5.66,1.31.98,2,.94,2.01,2.21,4.76,4.5,7.93,4.41,6.13,15.84,15.9,19.71,19.14v12.4l14.24,18.14c.03,6.48.33,31.9,3.25,40.64,2.16,6.5,6.99,14.58,10.51,20.48,1.48,2.48,2.88,4.83,3.25,5.71.91,2.18.74,4.85-.36,5.95-2.82,2.82-8.48,14.43-8.83,18.95-.37,4.84,4.8,17.54,5.84,20.03,1.51,3.63,7.62,7.29,11.25,9.21l2.91,8.76,18.31,16.05,8.45,17.69,3.56,16.02,20.82,14.37,30.34,25.43,20.15-2.52,11.76-7.46,5.64-1.95Z"/>
  <path id="San_Fabián" class="st0" d="M1623.61,698.52c-9.77,4.74-26.51,15.9-30.98,17.3-4.46,1.39-7.53-6.14-10.32-17.86-2.79-11.72-5.58-12.56-9.77-15.63s-6.42,4.47-11.72,5.3c-5.3.84-6.7-6.97-9.21-2.23s4.47,50.79,1.4,62.79c-3.07,12-5.86,13.68-8.93,22.05-3.07,8.37-1.4,32.65-1.12,34.04.28,1.4-9.21,13.4-13.68,17.31-4.46,3.9-6.41-.56-9.48-1.96-3.07-1.39-8.1,10.05-6.7,24.28,1.39,14.23,18.42,13.4,27.07,13.12,8.65-.28,10.6,3.91,10.04,9.49-.55,5.58-5.58,10.04-13.95,25.11-8.37,15.07-.56,25.4,8.93,32.1,9.49,6.69,27.35-.56,28.75-.56.56,0,1.13,1.33,1.58,3.03l-7.86,2.72-11.12,7.06-15.57,1.94-28.13-23.57-18.95-13.1-3.14-14.11-9.41-19.71-17.96-15.76-3.23-9.68-1.3-.65c-4.21-2.11-8.61-5.13-9.22-6.31-2.64-6.34-5.48-14.8-5.32-16.8.21-2.73,5.13-12.87,6.8-14.54,3.13-3.13,3.9-8.72,1.87-13.59-.56-1.35-1.88-3.55-3.7-6.61-3.17-5.3-7.96-13.32-9.88-19.1-2.37-7.11-2.89-31.03-2.89-39.64v-1.21l-14.24-18.14v-13.29l-1.28-1.05c-.15-.12-15.05-12.34-19.75-18.87-1.9-2.64-2.97-4.94-3.83-6.79-1.34-2.88-3.02-6.46-7.39-6.09-1.53.12-3.58.68-6.18,1.37-3.46.93-8.16,2.18-10.76,2.01-.36-.58-.78-2.11-1.03-3.06-.91-3.36-2.42-8.99-8.53-8.99-7.91,0-12.92.41-15.8,1.27-1.68.5-7.74,1.54-11.93,2.2l-28.2-17.45-7.68-4.09c-1.98-9.2-3.76-10.95-6.44-10.95h-8.33c-4.79-4.71-10.74-9.97-13.93-10.55-3.96-.72-29.29-5.54-34.24-6.67-1.03-1.51-3.18-5.71-4.78-9.21l-.34-.73-15.48-12.74-13.31-3.2c-2.53-4.18-5.72-9.51-6.09-10.22-.61-1.23-3.31-4.54-5.47-7.11l-.44-.52-15.24-8.02c-1.21-3.82-4.51-14.26-5.12-16.13-.02-.16-.01-.34-.02-.53-.02-1.75-.1-7.1-7.46-7.84-5.58-.56-22.03-1.64-22.73-1.68l-1.15-.08-8.63,5.56-24.46-2,12.05-25.38-10.45-9.58,3.66-15.76-9.21-7.52,10.76-10.22-7-7.71-.22-9.87,41.87-36.05-2.8-2.67c-.95-.9-5.47-5.14-8.61-7.07-.04-.15-.08-.31-.11-.5.05.02.11.04.16.06,2.52.84,13.96,5.02,13.96,5.02,0,0,11.44,5.58,13.95,6.42,2.51.84,3.63,8.37,9.21,11.16s22.61-1.67,22.61-1.67l9.2,5.3s11.73.28,12.84.28,11.72,10.05,13.12,10.88c1.39.84,3.63,1.68,9.49,1.12,5.86-.56,7.25-7.81,7.81-8.93s5.02-1.39,5.02-1.39c0,0,24,22.6,24,23.72s4.75,16.18,4.75,16.18c0,0,.28,3.63,1.95,9.21,1.68,5.58,11.16,16.47,11.16,16.47l1.68,14.51s13.95,15.07,14.23,16.18c.28,1.12,35.72,1.4,35.72,1.4,0,0,3.91,24,7.82,28.74,3.9,4.75,16.46.56,17.58-1.11,1.11-1.68,1.95-11.72,1.95-11.72,0,0,5.86-11.17,5.86-12.84s2.23-11.72,2.23-11.72l3.35-7.54,1.12-12.55s5.86-1.68,8.37-5.03c2.51-3.35,2.51-10.88,3.07-12.56.56-1.67,5.86-9.21,6.14-10.04.28-.84,11.44-13.96,11.44-13.96,0,0,9.21,11.17,12,13.96,2.79,2.79,12.56,8.37,14.23,8.37s6.14-2.51,7.82-3.63c1.67-1.11,4.18-7.81,4.74-9.21.56-1.39,5.58-1.39,9.21-2.79,3.63-1.39,9.21-10.6,10.61-12.28,1.39-1.67,1.67-15.35,2.51-20.37.84-5.02,5.86-7.26,10.88-10.32,5.03-3.07,17.3-.28,17.3-.28l2.24-6.14,5.86-6.42s0-9.77.56-11.72c.55-1.96,19.25-18.14,20.93-18.42,1.67-.28,4.46,4.74,6.41,4.74s15.07-.28,15.91,1.12c.84,1.39,14.51,14.79,14.79,15.91.28,1.11.84,18.69,2.51,27.07,1.68,8.37,0,11.72,0,19.81s1.12,7.81,0,10.05c-1.11,2.23-.55,5.86.56,15.34,1.12,9.49,13.4,9.21,15.91,9.21s12.56,4.47,19.25,10.33c6.7,5.86-6.97,10.05-6.97,10.05v20.09c0,5.02-8.09,9.49-9.21,15.35s5.86,10.04,6.42,14.79c.56,4.74-2.79,14.51-5.86,27.35-3.07,12.83,5.58,14.23,5.58,26.23s-6.98,20.65-6.7,23.16,8.93,8.65,10.05,10.89c1.11,2.23,3.07,13.95,6.42,21.49,3.34,7.53,10.88,15.9,17.58,21.48,6.69,5.58,5.86,15.35-3.91,20.1Z"/>
  <path id="Yungay" class="st0" d="M1186.6,996.4l-4.06-5.11-16.38,17.61h-8.12c-1.34,2.59-3.85,9.53-5.69,15.4l-.82,2.61-26.6-1.54-5.79,7.24-30.72,1.87-19.9,20.28-2.04-.63c-9.33-2.87-19.75-6-23.47-7.01-1.66,1.66-5.04,5.53-7.78,8.86l-1.01,1.23-27.73.82-5.41-2.57-8.16,9.52-12.99.79-9.96,5.36-32.13-3.57-29.63-8.05-21.84.77-21.31-14.81-30.9,13.29-33.9-.39-13.27-10.13c-13.32,7.02-15.63,6.25-16.77,5.87-2.21-.74-4.92-3.2-6.66-4.96l-24.16,1.07-19.17-4.13-3.71-.25c.82.84,1.45,1.56,1.78,2.08,1.95,3.07,6.14,15.91,4.19,20.37-1.95,4.47-19.53,14.23-22.05,16.74s-7.53,9.49-9.21,10.33c-1.67.84-11.16-.84-15.63.28-4.47,1.12-2.79,3.63-8.93,7.53-6.14,3.91,2.23,4.19.84,11.16-1.4,6.98-12.56,16.47-11.16,17.58,1.4,1.12,7.53.84,7.81,10.6.28,9.77,4.74,18.7.84,20.37s-4.47,5.02-6.14,6.14c-1.67,1.12-7.81,1.67-7.81,4.47s4.47,12.84,4.47,17.58-.84,13.95,2.79,13.12c3.63-.84,6.42-7.26,9.49-6.42,3.07.84,4.19,3.07,5.86.28,1.67-2.79,4.74-7.81,8.09-8.09,3.35-.28,27.91,2.79,27.91,2.79,0,0,9.49,9.49,15.07,9.49s8.65-5.86,13.95-6.42,11.44-.84,12.28-2.23c.84-1.4,4.74-8.09,9.77-9.21s9.21.56,12.56-1.12c3.35-1.67,8.65-6.98,11.44-6.14s3.35,11.44,9.77,13.12c6.42,1.67,18.42,3.63,21.77,2.23,3.35-1.4,4.19-12.56,3.35-13.67s-3.63-4.74-1.95-7.81,30.14-1.95,30.14-1.95c0,0,23.72,22.6,27.35,23.16,3.63.56,11.72-5.86,17.58-5.58s6.42,4.19,13.95,2.23,17.3-11.16,20.37-12,20.65-1.12,25.67-3.63c5.02-2.51,24.84-12.28,27.07-14.79s4.74-2.51,5.86-8.93c1.12-6.42,2.51-19.26,5.3-24.84s8.65-3.63,12.28-8.37c3.63-4.74,12.28-8.93,14.51-9.77,2.23-.84,29.58-.28,29.58-.28,0,0,18.14,11.16,23.16,12.28s11.72-3.63,15.63-1.95,19.53,22.88,22.6,23.16,12-12.56,20.09-14.51c8.09-1.95,24.84.28,30.42,1.4,5.58,1.12,10.88-8.93,20.37-9.77,9.49-.84,13.95-.56,17.58,2.51,3.63,3.07,5.86,5.58,8.09,3.63,2.23-1.95-.56-8.37-2.23-13.67-1.67-5.3-.84-7.81.56-12.84,1.4-5.02,5.3-14.51,7.81-19.26,2.51-4.74,7.26-4.47,5.58-10.05-1.67-5.58-5.58-7.26-5.3-12.28s5.86-5.86,5.58-10.88c-.28-5.02-15.91-22.33-17.86-27.35-.07-.18-.13-.35-.19-.53l-10.65-5.03-1.99-14.7Z"/>
  <path id="San_Ignacio" class="st0" d="M1037.99,828.07c.58.29,1.44,1.04,2.35,1.97l-15.4,10.86-17.54,1.91-10.93,11.99c-21.56-6.57-23.27-6.57-23.84-6.57-1.02,0-2.72,0-28.77,14.64l-17.5-4.46c-2.8-.92-11.68-3.53-16.57-1.31-3.9,1.77-14.47,5.42-14.58,5.46l-.31.1-4.76,2.73-16.29.75-11.15,8.92-22.83.76-17.49,23.2c-13.91-6.85-14.76-6.32-16.38-5.33l-1.7,1.11v.71c-1.59,1.43-5.75,4.54-9.38,7.09l-4.53,1.95-8.83,1.69-13.1-1.09-16.85.4-7.03,2.96h-3.83l-13.21-12.84-19.16,2.44-2.86,1.14c1.89-7.65,9.07-28.84,10.9-33.74.75-1.98,4.74-7.79,7.34-11.27l3.67-4.81-5.97-.75c-.07,0-.17-.04-.26-.07-.17-1.02.11-3.6.33-5.7l.12-1.15c.3-2.91,6.14-12.23,8.19-13.61.27-.18.57-.19,1.52-.14,1.53.08,4.72.25,6.62-3.2.48-.88,1.22-2.58,2.48-5.5,1.58-3.66,5.08-11.77,6.85-14.32,2.29.38,7.48,2.33,9.58,3.12,1.57.59,2.42.91,3.01,1.07l.77.23c3.49,1.05,7.84,2.34,9.86-.9,1.2-1.92.77-4.27.31-6.75-.14-.75-.28-1.53-.36-2.19-.32-2.92-2.63-6.56-7.98-12.55-3.06-3.43-6.39-9.65-6.98-13.05-.43-2.51-.47-13.2-.39-20.41.7-.33,1.47-.69,2.3-1.06,2.22-1.01,3.76-1.83,4.88-2.42,2.52-1.34,2.67-1.41,5.84-1.19,3.39.24,12.98,4.87,19.99,8.24,3.59,1.73,6.98,3.36,9.59,4.47,2.79,1.18,3.96,1.98,4.89,2.63,2.46,1.69,3.83,2.11,9.46,2.11,5.34,0,9.94-.73,13.99-1.38,2.69-.43,5.23-.84,7.72-1,2.62-.16,4.54.74,5.73.51.88-.17,1.82.32,2.32.37h2.79l1.68-.18.99.86c.61.36,6.12,3.57,12.03,3.57,7.25,0,9.21.41,9.64.54,1.03.74,4.64,4.16,6.82,6.24,1.9,1.8,3.69,3.5,4.78,4.45,3.16,2.74,11.22,7.97,14.93,9.87.95.49,2.61,1.44,4.53,2.53,5.27,3.02,12.49,7.15,16.61,8.4,5.53,1.68,14.51,3.75,19.11,4.56,4.04.72,7.06,1.32,8.27,1.6.23.2.53.46.89.77,2.98,2.58,9.16,7.95,13.14,10.24,2.08,1.2,7.88,6.93,12.54,11.53,7.15,7.05,10.49,10.24,12.55,11.21.88.42,1.28.75,1.7,1.11,1.21,1.01,2.3,1.5,3.62,1.5.86,0,1.82-.21,2.98-.6,2.46-.85,5.56-3.33,9.68-6.75,1.28-1.07,3.03-2.52,3.56-2.82,1.32-.75,2.91-2.19,5.36-4.49.77-.72,1.81-1.69,2.55-2.33.17.09.35.17.52.25,1.73.82,4.33,2.06,8.28,3.02,1.65.4,2.69.71,3.45.94,2.59.77,3.25.71,6.22,0l1.17-.29c2.92-.69,4.51-1.7,5.56-2.38.06-.04.13-.08.2-.12Z"/>
  <path id="Pinto" class="st0" d="M1565.01,1099.82l-43.26.28s-15.91-15.63-19.81-19.54c-3.91-3.9-8.1,0-10.89,3.35-2.79,3.35-5.86,2.51-15.35,3.63s-13.95,7.81-19.53,6.7c-5.58-1.12-7.26-5.3-10.89-5.86-3.62-.56-4.18,5.3-8.65,6.42-4.46,1.11-4.74-1.4-6.69-3.07-1.96-1.68-8.93,2.51-18.14,1.39s-18.14-19.81-21.49-22.88c-3.35-3.07-11.44-3.07-17.58-5.3-6.14-2.24-8.93-5.59-8.93-5.59,0,0-25.4-1.95-28.47-.83-3.07,1.11-9.77,17.58-10.88,15.35-1.12-2.24-32.37-17.03-35.17-20.66-2.79-3.62-3.62-12.83-4.74-16.18-1.12-3.35-6.42-7.26-9.49-10.33s-4.46-4.18-4.46-9.76-1.96-7.82-5.86-10.89c-3.91-3.07-10.61-5.02-13.4-5.02s-15.07.56-22.88.84c-7.82.27-10.89,7.81-16.19,8.37-4.9.51-11.7-2.54-13.14-1.9l-4.11-1.94-1.73-12.84-9.29-11.71,2.85-34.79-.8-1.06c-1.94-2.59-4.23-5.86-4.89-7.1-.09-4.1-.67-25.5-.74-28.11l-.03-1.26-10.24-11.63-1.82.21c-1.96.23-4.31.21-5.2-.02-2.13-2.2-13.41-14.15-19.38-20.49l-.5-.53-39-16.66-14.56-4.42-3.93-13.21-26.82-17.04-5.48,5.09-5.22-2.39c-1.4-1.8-4.7-5.71-7.79-6.94-3.18-1.27-5.13-.03-6.42.79-.8.52-1.64,1.06-3.4,1.47l-1.21.29c-.75.18-1.46.36-1.59.37-.13-.02-.58-.15-.97-.27-.79-.23-1.97-.59-3.81-1.03-3.25-.79-5.37-1.8-6.92-2.54-1.79-.85-3.34-1.58-5.19-1.06-1.36.39-2.5,1.38-5.67,4.35-1.25,1.16-3.33,3.12-4.02,3.51-1.03.58-2.35,1.66-4.59,3.52-2.11,1.76-6.05,5.03-7.48,5.52-.07.02-.13.04-.19.06-.58-.48-1.46-1.12-2.82-1.76-1.39-.75-6.74-6.03-10.65-9.89-6.71-6.61-11.3-11.07-13.96-12.6-3.4-1.96-9.46-7.22-12.05-9.46-1.63-1.41-1.8-1.56-2.28-1.8-.36-.19-1.13-.57-10.26-2.18-4.4-.78-13-2.76-18.29-4.37-3.36-1.02-10.46-5.08-15.16-7.77-2.08-1.19-3.72-2.13-4.81-2.69-3.49-1.79-11.08-6.79-13.54-8.93-.98-.84-2.71-2.49-4.55-4.23-5.38-5.12-7.25-6.81-8.46-7.41-1.56-.78-1.08-1.18-9.56-1.18l-2.09.03-.14-.38-1.86-11.91c1.59-.37,3.07,1.77,5.11,1.09l.54-.18c3.98-1.33,6.85-2.28,8.75-4.72,2.4-3.09,1.95-9.57,1.83-10.83-.25-2.77-3.34-6.27-5.9-8.72l-.29-.25c-4.7-3.62-9.96-7.74-11.19-8.84-.09-.32-.15-.94-.14-1.53l13.37-23.86c5.22,3.55,14.36,9.73,15.71,10.48,2.65,1.47,5.56.62,7.24-.57l.85-.59,6.93-17.15.83.6,16.03,8.07,14.81,21.65,19.77,3.87,17.99,11.02,6.38,2.35,14.94,20.91,12.35,3.88,5.08,17.41,29.02,16.86,22.99,8.29,16.2,4.26,66.26,6.52,5.98,14.78,35.08,20.27,21.22,3.53,19.88-2.38,31.96-20.21,30.52,4.2,10.03-13.12,4.76-.62,4.93,8.87,19.37,10.4,1.8,16.61,41.69,37.7c-3.98,7.02-6.14,11.3-6.43,12.75-.27,1.34-.77,3.82,7.79,11.48l.97.87,21.92.4,18.73-5.35,14.74-4.91,9.49,10.39.74,28.3,19.04,20.3,3.24-.75,2.07,11.02,14.53.78c5.06,2.83,18.42,7.99,26.45,10.67,10.04,3.35,20.09,18.14,27.35,30.98,7.25,12.83,3.07,36.55,4.46,38.51,1.4,1.95,10.61,3.07,11.16,4.46.56,1.4-.83,6.42-1.39,10.05s8.37,18.7,10.32,21.21c1.96,2.51,8.66,8.65,8.66,8.65Z"/>
</svg>